<?xml version="1.0" encoding="UTF-8"?>
<svg width="18px" height="18px" viewBox="0 0 18 18" version="1.1" xmlns="http://www.w3.org/2000/svg" xmlns:xlink="http://www.w3.org/1999/xlink">
    <!-- Generator: Sketch 43.1 (39012) - http://www.bohemiancoding.com/sketch -->
    <title>Artboard 4 Copy</title>
    <desc>Created with Sketch.</desc>
    <defs></defs>
    <g id="Page-1" stroke="none" stroke-width="1" fill="none" fill-rule="evenodd">
        <g id="Artboard-4-Copy" fill="#000000">
            <path d="M9.2421875,2 C9.3828132,2.04687523 9.453125,2.11718703 9.453125,2.2109375 C9.50000023,2.25781273 9.50000023,2.30468727 9.453125,2.3515625 C9.21874883,2.96094055 9.1015625,3.64062125 9.1015625,4.390625 C9.1015625,5.14062875 9.26562336,5.98437031 9.59375,6.921875 C9.92187664,7.85937969 10.0859375,8.56249766 10.0859375,9.03125 C10.0859375,9.54687758 9.99218844,10.0859347 9.8046875,10.6484375 C9.61718656,11.1640651 9.38281391,11.7031222 9.1015625,12.265625 C8.9609368,12.5468764 8.8203132,12.6875 8.6796875,12.6875 C8.49218656,12.6875 8.3984375,12.5703137 8.3984375,12.3359375 C8.44531273,12.3359375 8.46875,12.289063 8.46875,12.1953125 C8.70312617,11.2578078 8.79687523,10.3203172 8.75,9.3828125 C8.75,9.00781063 8.58593914,8.37500445 8.2578125,7.484375 C7.92968586,6.64062078 7.765625,5.86719102 7.765625,5.1640625 C7.765625,4.74218539 7.90624859,4.20312828 8.1875,3.546875 C8.46875141,2.98437219 8.74999859,2.51562687 9.03125,2.140625 C9.12500047,2.09374977 9.19531227,2.04687523 9.2421875,2 Z M11.9140625,3.0546875 C12.0546882,3.10156273 12.125,3.17187453 12.125,3.265625 L12.125,3.40625 C11.8906238,4.01562805 11.7500002,4.64843422 11.703125,5.3046875 C11.703125,5.82031508 11.8671859,6.45312125 12.1953125,7.203125 C12.6171896,8.09375445 12.828125,8.74999789 12.828125,9.171875 C12.8750002,9.87500352 12.5468785,10.7890569 11.84375,11.9140625 C11.7968748,12.0546882 11.7031257,12.125 11.5625,12.125 C11.3749991,12.1718752 11.28125,12.0546889 11.28125,11.7734375 L11.28125,11.5625 C11.5156262,11.0937477 11.6328125,10.3671924 11.6328125,9.3828125 L11.6328125,9.03125 C11.5859373,8.65624812 11.4453137,8.23437734 11.2109375,7.765625 C10.8359356,7.06249648 10.6484375,6.26562945 10.6484375,5.375 C10.6953127,4.85937242 11.0468717,4.10937992 11.703125,3.125 C11.7500002,3.07812477 11.820312,3.0546875 11.9140625,3.0546875 Z M6.4296875,3.0546875 C6.5703132,3.10156273 6.640625,3.17187453 6.640625,3.265625 C6.640625,3.31250023 6.61718773,3.4062493 6.5703125,3.546875 C6.33593633,4.10937781 6.21875,4.67187219 6.21875,5.234375 C6.21875,5.70312734 6.40624813,6.35937078 6.78125,7.203125 C7.15625187,8.00000398 7.34375,8.60937289 7.34375,9.03125 C7.43750047,9.78125375 7.10937875,10.7421816 6.359375,11.9140625 C6.26562453,12.0546882 6.17187547,12.125 6.078125,12.125 C5.89062406,12.1718752 5.796875,12.0546889 5.796875,11.7734375 C5.84375023,11.7265623 5.8671875,11.6562505 5.8671875,11.5625 C6.14843891,11.0937477 6.26562523,10.3671924 6.21875,9.3828125 C6.26562523,9.33593727 6.26562523,9.28906273 6.21875,9.2421875 C6.26562523,9.2421875 6.26562523,9.21875023 6.21875,9.171875 C6.26562523,8.84374836 6.12500164,8.39844031 5.796875,7.8359375 C5.32812266,6.89843281 5.14062453,6.03125398 5.234375,5.234375 C5.28125023,4.71874742 5.60937195,4.01562945 6.21875,3.125 C6.26562523,3.07812477 6.33593703,3.0546875 6.4296875,3.0546875 Z M4.25,14.796875 C2.7499925,14.0468713 2,13.0859434 2,11.9140625 C2,11.4453102 2.21093539,10.8828158 2.6328125,10.2265625 C3.00781438,9.71093492 3.42968516,9.35937594 3.8984375,9.171875 L4.0390625,9.171875 C4.22656344,9.171875 4.3203125,9.2421868 4.3203125,9.3828125 C4.36718773,9.47656297 4.3203132,9.57031203 4.1796875,9.6640625 C3.99218656,9.85156344 3.78125117,10.0859361 3.546875,10.3671875 C3.26562359,10.8359398 3.125,11.2578106 3.125,11.6328125 C3.125,12.5703172 3.66405711,13.2968724 4.7421875,13.8125 C5.77344266,14.3750028 7.08592953,14.65625 8.6796875,14.65625 C10.6953226,14.7031252 12.2421821,14.421878 13.3203125,13.8125 C14.3984429,13.2968724 14.9375,12.5703172 14.9375,11.6328125 C14.9375,11.3046859 14.7968764,10.9062523 14.515625,10.4375 C14.3281241,10.1562486 14.1171887,9.89843867 13.8828125,9.6640625 C13.789062,9.57031203 13.7421875,9.47656297 13.7421875,9.3828125 C13.7890627,9.2421868 13.8828118,9.171875 14.0234375,9.171875 L14.1640625,9.171875 C14.6328148,9.35937594 15.0546856,9.71093492 15.4296875,10.2265625 C15.8984398,10.929691 16.085938,11.632809 15.9921875,12.3359375 C15.8515618,13.3203174 15.1250066,14.1406217 13.8125,14.796875 C12.5937439,15.406253 11.1640707,15.7343748 9.5234375,15.78125 C7.41405195,15.8281252 5.65625703,15.5000035 4.25,14.796875 Z" id="♨"></path>
        </g>
    </g>
</svg>