<?xml version="1.0" encoding="UTF-8"?>
<svg width="15px" height="15px" viewBox="0 0 15 15" version="1.1" xmlns="http://www.w3.org/2000/svg" xmlns:xlink="http://www.w3.org/1999/xlink">
    <!-- Generator: Sketch 43.1 (39012) - http://www.bohemiancoding.com/sketch -->
    <title>Combined Shape</title>
    <desc>Created with Sketch.</desc>
    <defs></defs>
    <g id="Page-1" stroke="none" stroke-width="1" fill="none" fill-rule="evenodd">
        <g id="Artboard-3" transform="translate(-166.000000, -955.000000)" fill="#999999">
            <g id="Group-4-Copy-2" transform="translate(108.000000, 924.000000)">
                <g id="Group-3" transform="translate(64.545942, 39.545942) rotate(45.000000) translate(-64.545942, -39.545942) translate(60.045942, 30.545942)">
                    <path d="M2.07539108,7.47226244 L2.85714286,2 L2,2 L2,8.8817842e-14 L7,8.8817842e-14 L7,2 L6.14285714,2 L6.92460892,7.47226244 C8.17278518,8.00548032 9,8.93833803 9,10 L1.98951966e-13,10 C1.98951966e-13,8.93833803 0.827214824,8.00548032 2.07539108,7.47226244 Z M4,10 L5,10 L5,15 L4,15 L4,10 Z M4.5,18 L4,15 L5,15 L4.5,18 Z" id="Combined-Shape"></path>
                </g>
            </g>
        </g>
    </g>
</svg>